<svg xmlns="http://www.w3.org/2000/svg" viewBox="0 0 306.51 63.44"><title>lunadio</title><g id="export"><circle cx="299.34" cy="7.17" r="7.17"/><path d="M10.08,52.5H28.87v10H0V12.1H10.08Z"/><path d="M73.25,43.93a19.55,19.55,0,0,1-39.1.07V12.1H44.23V43.93a9.46,9.46,0,0,0,9.5,9.43,9.2,9.2,0,0,0,6.62-2.74A9.57,9.57,0,0,0,63.17,44H63.1V12.1H73.18V43.93Z"/><path d="M119.66,62.58,91.29,33.13V62.58H81.21V12.1h3.17l27.87,28.23V12.1h10.08V62.58Z"/><path d="M155.3,12.1l23.83,50.48H168L153.57,31.9,137.94,62.58h-11.3L152.35,12.1Z"/><path d="M197.7,12.1a24.81,24.81,0,0,1,17.79,7.34,24.09,24.09,0,0,1,5.4,8.06,25,25,0,0,1,0,19.66,23.1,23.1,0,0,1-5.4,8,25.28,25.28,0,0,1-17.79,7.42H187.55v-.07h-4.1V12.1Zm0,40.4a15.16,15.16,0,0,0,0-30.31h-4.18V52.5Z"/><path d="M227.94,62.51V12.1H238v50.4Z"/><path d="M295.34,37.3A26.14,26.14,0,1,1,269.2,11.17,26.18,26.18,0,0,1,295.34,37.3Zm-41.91,0A15.77,15.77,0,1,0,269.2,21.53,15.76,15.76,0,0,0,253.43,37.3Z"/></g></svg>